<svg xmlns="http://www.w3.org/2000/svg" viewBox="0 0 46.13 34.36"><defs><style>.cls-1{fill:none;}.cls-2{fill:#bea055;}</style></defs><g id="Layer_2" data-name="Layer 2"><g id="Layer_1-2" data-name="Layer 1"><path class="cls-1" d="M35.69,10c.76-3.24-1.19-7.19-4.92-5.59-3.07,1.31-4.7,9-6.36,15.57C32.85,19.72,34.78,13.9,35.69,10Z"/><path class="cls-2" d="M38.36,29.7c-5.26,0-7.59-7.06-7.59-7.06,9.19,0,11.45-10,11.45-10S46.15,0,24.51,0C4.13,0,0,8.92,0,12.52S2.66,20,6.66,20s5.06-2.53,5.06-2.53-7.19,1.2-7.19-3.86c0-9.19,16.78-12,20.11-12a20.22,20.22,0,0,1,5.46.66S23.31,3.6,21.44,8.39C20,12.18,18.78,18.91,16.65,23s-5.86,8.13-9.86,8.13S3.2,28.77,3.2,27.7s2.13-3.19,2.13-3.19.66-1.2-.93-.67S.53,25,.53,28.77s3.6,5.59,8.66,5.59S21.18,30.9,23.31,24c.12-.39.24-.8.36-1.21C24.3,25.33,27.06,34,35.56,34h.14a10.75,10.75,0,0,0,10.23-8.32l.2-.84A9.37,9.37,0,0,1,38.36,29.7ZM24.41,20C26.07,13.42,27.7,5.71,30.77,4.4,34.5,2.8,36.45,6.75,35.69,10,34.78,13.9,32.85,19.72,24.41,20Z"/></g></g></svg>